<?xml version="1.0" encoding="utf-8"?>
<!DOCTYPE svg PUBLIC "-//W3C//DTD SVG 1.1//EN" "http://www.w3.org/Graphics/SVG/1.1/DTD/svg11.dtd">
<svg version="1.1" xmlns="http://www.w3.org/2000/svg" width="650" height="607" viewBox="0 0 650 607" enable-background="new 0 0 650 607">
 <g>
  <g>
   <text transform="matrix(1 0 0 1 518.8955 597.3223)" fill="#ffffff" font-family="&apos;Sansation-Regular&apos;" font-size="14.03">http://goo.gl/tbQ8s</text>
  </g>
 </g>
 <g opacity="0.9">
  <path fill="#00daf3" d="M47.205,216.445c-6.283-5.023-6.157-13.082,0.279-17.908L199.24,84.753
		c6.436-4.826,16.967-4.825,23.403,0.001l151.725,113.781c6.435,4.826,6.56,12.884,0.276,17.907L222.333,338.204
		c-6.283,5.023-16.564,5.022-22.847-0.001L47.205,216.445z"/>
  <path fill="#007ff3" d="M232.038,383.749c0-8.044,5.207-18.651,11.57-23.572l138.359-106.979c6.363-4.92,11.57-2.365,11.57,5.679
		v148.99c0,8.044-5.207,18.651-11.57,23.571L243.608,538.416c-6.364,4.921-11.571,2.364-11.571-5.68V383.749z"/>
  <path fill="#ff7f11" d="M39.82,431.547c-6.329-4.966-11.506-15.61-11.506-23.654V258.989c0-8.043,5.178-10.563,11.506-5.597
		l135.958,106.677c6.329,4.967,11.506,15.61,11.506,23.654v148.903c0,8.044-5.178,10.563-11.507,5.597L39.82,431.547z"/>
 </g>
 <g opacity="0.9">
  <path fill="#00daf3" d="M348.607,330.771c-4.918-3.932-4.82-10.239,0.218-14.016l118.78-89.059c5.037-3.777,13.28-3.777,18.318,0
		l118.757,89.058c5.038,3.776,5.135,10.083,0.218,14.015l-119.218,95.304c-4.918,3.932-12.965,3.931-17.883-0.001L348.607,330.771z"/>
  <path fill="#007ff3" d="M493.277,461.722c0-6.296,4.075-14.599,9.057-18.45l108.295-83.732c4.98-3.852,9.057-1.851,9.057,4.445
		V480.6c0,6.297-4.076,14.6-9.057,18.45l-108.295,83.731c-4.981,3.851-9.057,1.851-9.057-4.446V461.722z"/>
  <path fill="#ff7f11" d="M342.827,499.134c-4.953-3.888-9.006-12.219-9.006-18.515V364.071c0-6.296,4.053-8.268,9.006-4.381
		l106.415,83.496c4.954,3.887,9.006,12.218,9.006,18.515v116.547c0,6.296-4.052,8.268-9.006,4.381L342.827,499.134z"/>
 </g>
 <g opacity="0.9">
  <path fill="#00daf3" d="M328.63,100.095c-4.229-3.381-4.144-8.805,0.188-12.054l102.15-76.59c4.333-3.248,11.422-3.248,15.754,0
		l102.13,76.589c4.332,3.248,4.415,8.673,0.187,12.054l-102.526,81.96c-4.229,3.381-11.149,3.381-15.379,0L328.63,100.095z"/>
  <path fill="#007ff3" d="M453.046,212.713c0-5.415,3.506-12.555,7.789-15.867l93.134-72.01c4.282-3.312,7.787-1.592,7.787,3.823
		v100.289c0,5.415-3.505,12.555-7.788,15.867l-93.133,72.009c-4.283,3.313-7.789,1.592-7.789-3.823V212.713z"/>
  <path fill="#ff7f11" d="M323.66,244.887c-4.26-3.342-7.745-10.507-7.745-15.922V128.734c0-5.415,3.485-7.11,7.745-3.768
		l91.517,71.808c4.261,3.342,7.746,10.507,7.746,15.922v100.229c0,5.415-3.485,7.11-7.746,3.769L323.66,244.887z"/>
 </g>
</svg>
